<?xml version="1.0" encoding="utf-8"?>
<!-- Generator: Adobe Illustrator 26.1.0, SVG Export Plug-In . SVG Version: 6.00 Build 0)  -->
<svg version="1.1" id="Layer_1" xmlns="http://www.w3.org/2000/svg" xmlns:xlink="http://www.w3.org/1999/xlink" x="0px" y="0px"
	 viewBox="0 0 17.4 17.4" style="enable-background:new 0 0 17.4 17.4;" xml:space="preserve">
<style type="text/css">
	.st0{fill:#231F20;}
</style>
<g>
	<path class="st0" d="M14.5,15.6H2.9c-0.1,0-0.3-0.1-0.4-0.2c-0.1-0.1-0.1-0.2-0.1-0.4L3.7,4.2C3.8,4,4,3.8,4.2,3.8H13
		c0.2,0,0.5,0.2,0.5,0.4L15,15c0,0.1,0,0.3-0.1,0.4S14.7,15.6,14.5,15.6z M3.5,14.6H14l-1.4-9.8H4.7L3.5,14.6z"/>
</g>
<g>
	<path class="st0" d="M11.5,5.9c-0.3,0-0.5-0.2-0.5-0.5c0-1-0.3-1.8-0.8-2.4c-0.4-0.5-1-0.7-1.7-0.7c-1.2,0-2.5,1-2.5,3.1
		c0,0.3-0.2,0.5-0.5,0.5S5.1,5.7,5.1,5.4c0-1.2,0.4-2.3,1.1-3.1c0.6-0.7,1.5-1.1,2.4-1.1c1.7,0,3.5,1.3,3.5,4.1
		C12,5.7,11.8,5.9,11.5,5.9z"/>
</g>
</svg>
